<svg width="26" height="23" viewBox="0 0 26 23" fill="none" xmlns="http://www.w3.org/2000/svg">
<path d="M21.4249 4.14277V4.15002H21.402H21.3712H21.3404H21.3097H21.2789H21.2482H21.2174H21.1866H21.1559H21.1251H21.0943H21.0636H21.0328H21.0021H20.9713H20.9405H20.9098H20.879H20.8483H20.8175H20.7867H20.756H20.7252H20.6944H20.6637H20.6329H20.6022H20.5714H20.5406H20.5099H20.4791H20.4484H20.4176H20.3868H20.3561H20.3253H20.2945H20.2638H20.233H20.2023H20.1715H20.1407H20.11H20.0792H20.0485H20.0177H19.9869H19.9562H19.9254H19.8946H19.8639H19.8331H19.8024H19.7716H19.7408H19.7101H19.6793H19.6485H19.6178H19.587H19.5563H19.5255H19.4947H19.464H19.4332H19.4025H19.3717H19.3409H19.3102H19.2794H19.2486H19.2179H19.1871H19.1564H19.1256H19.0948H19.0641H19.0333H19.0026H18.9718H18.941H18.9103H18.8795H18.8487H18.818H18.7872H18.7565H18.7257H18.6949H18.6642H18.6334H18.6026H18.5719H18.5411H18.5104H18.4796H18.4488H18.4181H18.3873H18.3566H18.3258H18.295H18.2643H18.2335H18.2027H18.172H18.1412H18.1105H18.0797H18.0489H18.0182H17.9874H17.9567H17.9259H17.8951H17.8644H17.8336H17.8028H17.7721H17.7413H17.7106H17.6798H17.649H17.6183H17.5875H17.5568H17.526H17.4952H17.4645H17.4337H17.4029H17.3722H17.3414H17.3107H17.2799H17.2491H17.2184H17.1876H17.1568H17.1261H17.0953H17.0646H17.0338H17.003H16.9723H16.9415H16.9108H16.88H16.8492H16.8185H16.7877H16.7569H16.7262H16.6954H16.6647H16.6339H16.6031H16.5724H16.5416H16.5109H16.4801H16.4493H16.4186H16.3878H16.357H16.3263H16.2955H16.2648H16.234H16.2032H16.1725H16.1417H16.111H16.0802H16.0494H16.0187H15.9879H15.9571H15.9264H15.8956H15.8649H15.8341H15.8033H15.7726H15.7418H15.711H15.6803H15.6495H15.6188H15.588H15.5572H15.5265H15.4957H15.465H15.4342H15.4034H15.3727H15.3419H15.3111H15.2804H15.2496H15.2189H15.1881H15.1573H15.1266H15.0958H15.0651H15.0343H15.0035H14.9728H14.942H14.9112H14.8805H14.8497H14.819H14.7882H14.7574H14.7267H14.6959H14.6651H14.6344H14.6036H14.5729H14.5421H14.5113H14.4806H14.4498H14.4191H14.3883H14.3575H14.3268H14.296H14.2652H14.2345H14.2037H14.173H14.1422H14.1114H14.0807H14.0499H14.0192H13.9884H13.9576H13.9269H13.8961H13.8653H13.8346H13.8038H13.7731H13.7423H13.7115H13.6808H13.65H13.6193H13.5885H13.5577H13.527H13.4962H13.4654H13.4347H13.4039H13.3732H13.3424H13.3116H13.2809H13.2501H13.2193H13.1886H13.1578H13.1271H13.0963H13.0655H13.0348H13.004H12.9733H12.9425H12.9117H12.881H12.8502H12.8194H12.7887H12.7579H12.7272H12.6964H12.6656H12.6349H12.6041H12.5734H12.5426H12.5118H12.4811H12.4503H12.4195H12.3888H12.358H12.3273H12.2965H12.2657H12.235H12.2042H12.1734H12.1427H12.1119H12.0812H12.0504H12.0196H11.9889H11.9581H11.9274H11.8966H11.8658H11.8351H11.8043H11.7735H11.7428H11.712H11.6813H11.6505H11.6197H11.589H11.5582H11.5275H11.4967H11.4659H11.4352H11.4044H11.3736H11.3429H11.3121H11.2814H11.2506H11.2198H11.1891H11.1583H11.1276H11.0968H11.066H11.0353H11.0045H10.9737H10.943H10.9122H10.8815H10.8507H10.8199H10.7892H10.7584H10.7276H10.6969H10.6661H10.6354H10.6046H10.5738H10.5431H10.5123H10.4816H10.4508H10.42H10.3893H10.3585H10.3277H10.297H10.2662H10.2355H10.2047H10.1739H10.1432H10.1124H10.0817H10.0509H10.0201H9.98937H9.95861H9.92784H9.89708H9.86632H9.83556H9.8048H9.77404H9.74327H9.71251H9.68175H9.65099H9.62023H9.58947H9.5587H9.52794H9.49718H9.46642H9.43566H9.40489H9.37413H9.34337H9.31261H9.28185H9.25109H9.22032H9.18956H9.1588H9.15572C13.2965 3.0212 17.361 1.96935 21.4249 0.920445V0.925815V0.934285V0.942757V0.951231V0.959709V0.968189V0.976672V0.985158V0.993647V1.00214V1.01063V1.01913V1.02763V1.03613V1.04463V1.05314V1.06165V1.07016V1.07867V1.08719V1.09571V1.10423V1.11276V1.12128V1.12981V1.13834V1.14688V1.15541V1.16395V1.17249V1.18104V1.18958V1.19813V1.20668V1.21523V1.22379V1.23234V1.2409V1.24947V1.25803V1.26659V1.27516V1.28373V1.2923V1.30088V1.30946V1.31803V1.32661V1.3352V1.34378V1.35237V1.36096V1.36955V1.37814V1.38673V1.39533V1.40393V1.41253V1.42113V1.42974V1.43834V1.44695V1.45556V1.46417V1.47278V1.4814V1.49002V1.49863V1.50725V1.51588V1.5245V1.53313V1.54175V1.55038V1.55901V1.56764V1.57628V1.58491V1.59355V1.60219V1.61083V1.61947V1.62811V1.63676V1.6454V1.65405V1.6627V1.67135V1.68V1.68865V1.69731V1.70597V1.71462V1.72328V1.73194V1.7406V1.74926V1.75793V1.76659V1.77526V1.78393V1.7926V1.80127V1.80994V1.81861V1.82728V1.83596V1.84463V1.85331V1.86199V1.87067V1.87935V1.88803V1.89671V1.9054V1.91408V1.92277V1.93145V1.94014V1.94883V1.95752V1.96621V1.9749V1.98359V1.99228V2.00097V2.00967V2.01836V2.02706V2.03576V2.04445V2.05315V2.06185V2.07055V2.07925V2.08795V2.09665V2.10536V2.11406V2.12276V2.13147V2.14017V2.14888V2.15758V2.16629V2.175V2.1837V2.19241V2.20112V2.20983V2.21854V2.22725V2.23596V2.24467V2.25338V2.26209V2.2708V2.27952V2.28823V2.29694V2.30565V2.31437V2.32308V2.3318V2.34051V2.34922V2.35794V2.36665V2.37537V2.38408V2.3928V2.40151V2.41023V2.41895V2.42766V2.43638V2.44509V2.45381V2.46252V2.47124V2.47996V2.48867V2.49739V2.5061V2.51482V2.52353V2.53225V2.54096V2.54968V2.55839V2.56711V2.57582V2.58454V2.59325V2.60197V2.61068V2.61939V2.62811V2.63682V2.64553V2.65424V2.66296V2.67167V2.68038V2.68909V2.6978V2.70651V2.71522V2.72393V2.73264V2.74135V2.75005V2.75876V2.76747V2.77617V2.78488V2.79358V2.80229V2.81099V2.81969V2.8284V2.8371V2.8458V2.8545V2.8632V2.8719V2.8806V2.88929V2.89799V2.90669V2.91538V2.92407V2.93277V2.94146V2.95015V2.95884V2.96753V2.97622V2.98491V2.9936V3.00228V3.01097V3.01965V3.02834V3.03702V3.0457V3.05438V3.06306V3.07174V3.08041V3.08909V3.09776V3.10644V3.11511V3.12378V3.13245V3.14112V3.14979V3.15845V3.16712V3.17578V3.18445V3.19311V3.20177V3.21043V3.21908V3.22774V3.23639V3.24505V3.2537V3.26235V3.271V3.27965V3.28829V3.29694V3.30558V3.31422V3.32286V3.3315V3.34014V3.34877V3.3574V3.36604V3.37467V3.3833V3.39192V3.40055V3.40917V3.41779V3.42641V3.43503V3.44365V3.45226V3.46088V3.46949V3.4781V3.48671V3.49531V3.50392V3.51252V3.52112V3.52972V3.53831V3.54691V3.5555V3.56409V3.57268V3.58127V3.58985V3.59843V3.60702V3.61559V3.62417V3.63274V3.64132V3.64989V3.65845V3.66702V3.67558V3.68414V3.6927V3.70126V3.70982V3.71837V3.72692V3.73547V3.74401V3.75256V3.7611V3.76963V3.77817V3.78671V3.79524V3.80377V3.81229V3.82082V3.82934V3.83786V3.84637V3.85489V3.8634V3.87191V3.88042V3.88892V3.89742V3.90592V3.91442V3.92291V3.9314V3.93989V3.94838V3.95686V3.96534V3.97382V3.98229V3.99076V3.99923V4.0077V4.01616V4.02462V4.03308V4.04154V4.04999V4.05844V4.06689V4.07533V4.08377V4.09221V4.10064V4.10908V4.1175V4.12593V4.13435V4.14277Z" fill="url(#paint0_linear_307_5037)" stroke="url(#paint1_linear_307_5037)"/>
<path d="M1.25 6.90002V6.90862V6.94041V6.97219V7.00398V7.03577V7.06755V7.09934V7.13113V7.16291V7.1947V7.22649V7.25828V7.29006V7.32185V7.35364V7.38542V7.41721V7.449V7.48079V7.51257V7.54436V7.57615V7.60793V7.63972V7.67151V7.7033V7.73508V7.76687V7.79866V7.83044V7.86223V7.89402V7.92581V7.95759V7.98938V8.02117V8.05295V8.08474V8.11653V8.14832V8.1801V8.21189V8.24368V8.27546V8.30725V8.33904V8.37082V8.40261V8.4344V8.46619V8.49797V8.52976V8.56155V8.59333V8.62512V8.65691V8.6887V8.72048V8.75227V8.78406V8.81584V8.84763V8.87942V8.91121V8.94299V8.97478V9.00657V9.03835V9.07014V9.10193V9.13372V9.1655V9.19729V9.22908V9.26086V9.29265V9.32444V9.35623V9.38801V9.4198V9.45159V9.48337V9.51516V9.54695V9.57874V9.61052V9.64231V9.6741V9.70588V9.73767V9.76946V9.80124V9.83303V9.86482V9.89661V9.92839V9.96018V9.99197V10.0238V10.0555V10.0873V10.1191V10.1509V10.1827V10.2145V10.2463V10.2781V10.3098V10.3416V10.3734V10.4052V10.437V10.4688V10.5006V10.5323V10.5641V10.5959V10.6277V10.6595V10.6913V10.7231V10.7549V10.7866V10.8184V10.8502V10.882V10.9138V10.9456V10.9774V11.0092V11.0409V11.0727V11.1045V11.1363V11.1681V11.1999V11.2317V11.2635V11.2952V11.327V11.3588V11.3906V11.4224V11.4542V11.486V11.5177V11.5495V11.5813V11.6131V11.6449V11.6767V11.7085V11.7403V11.772V11.8038V11.8356V11.8674V11.8992V11.931V11.9628V11.9946V12.0263V12.0581V12.0899V12.1217V12.1535V12.1853V12.2171V12.2489V12.2806V12.3124V12.3442V12.376V12.4078V12.4396V12.4714V12.5031V12.5349V12.5667V12.5985V12.6303V12.6621V12.6939V12.7257V12.7574V12.7892V12.821V12.8528V12.8846V12.9164V12.9482V12.98V13.0117V13.0435V13.0753V13.1071V13.1389V13.1707V13.2025V13.2343V13.266V13.2978V13.3296V13.3614V13.3932V13.425V13.4568V13.4885V13.5203V13.5521V13.5839V13.6157V13.6475V13.6793V13.7111V13.7428V13.7746V13.8064V13.8382V13.87V13.9018V13.9336V13.9654V13.9971V14.0289V14.0607V14.0925V14.1243V14.1561V14.1879V14.2197V14.2514V14.2832V14.315V14.3468V14.3786V14.4104V14.4422V14.4739V14.5057V14.5375V14.5693V14.6011V14.6329V14.6647V14.6965V14.7282V14.76V14.7918V14.8236V14.8554V14.8872V14.919V14.9508V14.9825V15.0143V15.0461V15.0779V15.1097V15.1415V15.1733V15.2051V15.2368V15.2686V15.3004V15.3322V15.364V15.3958V15.4276V15.4593V15.4911V15.5229V15.5547V15.5865V15.6183V15.6501V15.6819V15.7136V15.7454V15.7772V15.809V15.8408V15.8726V15.9044V15.9362V15.9679V15.9997V16.0315V16.0633V16.0951V16.1269V16.1587V16.1905V16.2222V16.254V16.2858V16.3176V16.3494V16.3812V16.413V16.4448V16.4765V16.5083V16.5401V16.5719V16.6037V16.6355V16.6673V16.699V16.7308V16.7626V16.7944V16.8262V16.858V16.8898V16.9216V16.9533V16.9851V17.0169V17.0487V17.0805V17.1123V17.1441V17.1759V17.2076V17.2394V17.2712V17.303V17.3348V17.3666V17.3984V17.4302V17.4619V17.4937V17.5255V17.5573V17.5891V17.6209V17.6527V17.6844V17.7162V17.748V17.7798V17.8116V17.8434V17.8752V17.907V17.9387V17.9705V18.0023V18.0341V18.0659V18.0977V18.1295V18.1613V18.193V18.2248V18.2566V18.2884V18.3202V18.352V18.3838V18.4156V18.4473V18.4791V18.5109V18.5427V18.5745V18.6063V18.6381V18.6698V18.7016V18.7334V18.7652V18.797V18.8288V18.8606V18.8924V18.9241V18.9559V18.9877V19.0195V19.0513V19.0831V19.1149V19.1467V19.1784V19.2102V19.242V19.2738V19.3056V19.3374V19.3692V19.401V19.4327V19.4645V19.4963V19.5281V19.5599V19.5917V19.6235V19.6552V19.687V19.7188V19.7506V19.7824V19.8142V19.846V19.8778V19.9095V19.9413V19.9731V20.0049V20.0367V20.0685V20.1003V20.1321V20.1638V20.1956V20.2274V20.2592V20.291V20.3228V20.3546V20.3864V20.4181V20.4499V20.4817V20.5135V20.5453V20.5771V20.6089V20.6406V20.6724V20.7042V20.736V20.7678V20.7996V20.8314V20.8632V20.8949V20.9267V20.9585V20.9903V21.0221V21.0539V21.0857V21.1175V21.1492V21.181V21.2128V21.2446V21.2764V21.3082V21.34V21.3718V21.4035V21.4353V21.4671V21.4989V21.5307V21.5625V21.5943V21.626V21.6578V21.6896V21.7214V21.7532V21.785V21.8168V21.8486V21.8803V21.9121V21.9439V21.9757V22.0075V22.0393V22.0711V22.1029V22.1346V22.1664V22.175H1.27989H1.32804H1.37618H1.42432H1.47246H1.52059H1.56872H1.61685H1.66497H1.71309H1.7612H1.80931H1.85742H1.90552H1.95362H2.00172H2.04981H2.0979H2.14599H2.19407H2.24215H2.29022H2.33829H2.38636H2.43443H2.48249H2.53054H2.5786H2.62665H2.6747H2.72274H2.77078H2.81882H2.86685H2.91488H2.96291H3.01093H3.05896H3.10697H3.15499H3.203H3.25101H3.29901H3.34701H3.39501H3.44301H3.491H3.53899H3.58697H3.63495H3.68293H3.73091H3.77888H3.82686H3.87482H3.92279H3.97075H4.01871H4.06666H4.11462H4.16257H4.21051H4.25846H4.3064H4.35434H4.40227H4.4502H4.49813H4.54606H4.59399H4.64191H4.68983H4.73774H4.78566H4.83357H4.88148H4.92938H4.97728H5.02518H5.07308H5.12098H5.16887H5.21676H5.26465H5.31253H5.36041H5.40829H5.45617H5.50404H5.55192H5.59979H5.64765H5.69552H5.74338H5.79124H5.8391H5.88695H5.93481H5.98266H6.03051H6.07835H6.1262H6.17404H6.22188H6.26972H6.31755H6.36538H6.41321H6.46104H6.50887H6.55669H6.60452H6.65234H6.70015H6.74797H6.79578H6.8436H6.89141H6.93921H6.98702H7.03482H7.08263H7.13043H7.17822H7.22602H7.27381H7.32161H7.3694H7.41719H7.46497H7.51276H7.56054H7.60832H7.6561H7.70388H7.75166H7.79943H7.8472H7.89497H7.94274H7.99051H8.03828H8.08604H8.1338H8.18157H8.22933H8.27708H8.32484H8.3726H8.42035H8.4681H8.51585H8.5636H8.61135H8.65909H8.70684H8.75458H8.80232H8.85006H8.8978H8.94554H8.99328H9.04101H9.08875H9.13648H9.18421H9.23194H9.27967H9.3274H9.37512H9.42285H9.47057H9.5183H9.56602H9.61374H9.66146H9.70918H9.75689H9.80461H9.85233H9.90004H9.94775H9.99547H10.0432H10.0909H10.1386H10.1863H10.234H10.2817H10.3294H10.3771H10.4248H10.4725H10.5202H10.5679H10.6156H10.6633H10.711H10.7587H10.8064H10.8541H10.9018H10.9495H10.9972H11.0449H11.0926H11.1403H11.188H11.2357H11.2834H11.3311H11.3788H11.4264H11.4741H11.5218H11.5695H11.6172H11.6649H11.7126H11.7603H11.8079H11.8556H11.9033H11.951H11.9987H12.0464H12.094H12.1417H12.1894H12.2371H12.2848H12.3325H12.3801H12.4278H12.4755H12.5232H12.5709H12.6186H12.6662H12.7139H12.7616H12.8093H12.857H12.9046H12.9523H13H13.0477H13.0954H13.143H13.1907H13.2384H13.2861H13.3338H13.3814H13.4291H13.4768H13.5245H13.5722H13.6199H13.6675H13.7152H13.7629H13.8106H13.8583H13.906H13.9536H14.0013H14.049H14.0967H14.1444H14.1921H14.2397H14.2874H14.3351H14.3828H14.4305H14.4782H14.5259H14.5736H14.6212H14.6689H14.7166H14.7643H14.812H14.8597H14.9074H14.9551H15.0028H15.0505H15.0982H15.1459H15.1936H15.2413H15.289H15.3367H15.3844H15.4321H15.4798H15.5275H15.5752H15.6229H15.6706H15.7183H15.766H15.8137H15.8614H15.9091H15.9568H16.0045H16.0522H16.1H16.1477H16.1954H16.2431H16.2908H16.3385H16.3863H16.434H16.4817H16.5294H16.5771H16.6249H16.6726H16.7203H16.7681H16.8158H16.8635H16.9113H16.959H17.0067H17.0545H17.1022H17.1499H17.1977H17.2454H17.2932H17.3409H17.3887H17.4364H17.4841H17.5319H17.5797H17.6274H17.6752H17.7229H17.7707H17.8184H17.8662H17.914H17.9617H18.0095H18.0573H18.105H18.1528H18.2006H18.2483H18.2961H18.3439H18.3917H18.4395H18.4872H18.535H18.5828H18.6306H18.6784H18.7262H18.774H18.8218H18.8696H18.9174H18.9652H19.013H19.0608H19.1086H19.1564H19.2042H19.252H19.2998H19.3477H19.3955H19.4433H19.4911H19.539H19.5868H19.6346H19.6824H19.7303H19.7781H19.826H19.8738H19.9216H19.9695H20.0173H20.0652H20.113H20.1609H20.2088H20.2566H20.3045H20.3523H20.4002H20.4481H20.496H20.5438H20.5917H20.6396H20.6875H20.7354H20.7832H20.8311H20.879H20.9269H20.9748H21.0227H21.0706H21.1185H21.1664H21.2143H21.2623H21.3102H21.3581H21.406H21.4539H21.5019H21.5498H21.5977H21.6457H21.6936H21.7415H21.7895H21.8374H21.8854H21.9333H21.9813H22.0293H22.0772H22.1252H22.1731H22.2211H22.2691H22.3171H22.365H22.413H22.461H22.509H22.557H22.605H22.653H22.701H22.749H22.797H22.845H22.893H22.941H22.9891H23.0371H23.0851H23.1331H23.1812H23.2292H23.2773H23.3253H23.3734H23.4214H23.4695H23.5175H23.5656H23.6136H23.6617H23.7098H23.7579H23.8059H23.854H23.9021H23.9502H23.9983H24.0464H24.0945H24.1426H24.1907H24.2388H24.2869H24.335H24.3832H24.4313H24.4794H24.5275H24.5757H24.6238H24.672H24.7201H24.75L1.25 6.90002ZM1.25 6.90002H1.26885H1.31602H1.36318H1.41035H1.45752H1.50469H1.55186H1.59902H1.64619H1.69336H1.74053H1.7877H1.83486H1.88203H1.9292H1.97637H2.02354H2.0707H2.11787H2.16504H2.21221H2.25937H2.30654H2.35371H2.40088H2.44805H2.49521H2.54238H2.58955H2.63672H2.68389H2.73105H2.77822H2.82539H2.87256H2.91973H2.96689H3.01406H3.06123H3.1084H3.15557H3.20273H3.2499H3.29707H3.34424H3.39141H3.43857H3.48574H3.53291H3.58008H3.62725H3.67441H3.72158H3.76875H3.81592H3.86309H3.91025H3.95742H4.00459H4.05176H4.09893H4.14609H4.19326H4.24043H4.2876H4.33477H4.38193H4.4291H4.47627H4.52344H4.57061H4.61777H4.66494H4.71211H4.75928H4.80645H4.85361H4.90078H4.94795H4.99512H5.04229H5.08945H5.13662H5.18379H5.23096H5.27813H5.32529H5.37246H5.41963H5.4668H5.51397H5.56113H5.6083H5.65547H5.70264H5.7498H5.79697H5.84414H5.89131H5.93848H5.98564H6.03281H6.07998H6.12715H6.17432H6.22148H6.26865H6.31582H6.36299H6.41016H6.45732H6.50449H6.55166H6.59883H6.646H6.69316H6.74033H6.7875H6.83467H6.88184H6.929H6.97617H7.02334H7.07051H7.11768H7.16484H7.21201H7.25918H7.30635H7.35352H7.40068H7.44785H7.49502H7.54219H7.58936H7.63652H7.68369H7.73086H7.77803H7.8252H7.87236H7.91953H7.9667H8.01387H8.06104H8.1082H8.15537H8.20254H8.24971H8.29688H8.34404H8.39121H8.43838H8.48555H8.53271H8.57988H8.62705H8.67422H8.72139H8.76855H8.81572H8.86289H8.91006H8.95723H9.00439H9.05156H9.09873H9.1459H9.19307H9.24023H9.2874H9.33457H9.38174H9.42891H9.47607H9.52324H9.57041H9.61758H9.66475H9.71191H9.75908H9.80625H9.85342H9.90059H9.94775H9.99492H10.0421H10.0893H10.1364H10.1836H10.2308H10.2779H10.3251H10.3723H10.4194H10.4666H10.5138H10.5609H10.6081H10.6553H10.7024H10.7496H10.7968H10.8439H10.8911H10.9383H10.9854H11.0326H11.0798H11.127H11.1741H11.2213H11.2685H11.3156H11.3628H11.41H11.4571H11.5043H11.5515H11.5986H11.6458H11.693H11.7401H11.7873H11.8345H11.8816H11.9288H11.976H12.0231H12.0703H12.1175H12.1646H12.2118H12.259H12.3062H12.3533H12.4005H12.4477H12.4948H12.542H12.5892H12.6363H12.6835H12.7307H12.7778H12.825H12.8722H12.9193H12.9665H13.0137H13.0608H13.108H13.1552H13.2023H13.2495H13.2967H13.3438H13.391H13.4382H13.4854H13.5325H13.5797H13.6269H13.674H13.7212H13.7684H13.8155H13.8627H13.9099H13.957H14.0042H14.0514H14.0985H14.1457H14.1929H14.24H14.2872H14.3344H14.3815H14.4287H14.4759H14.523H14.5702H14.6174H14.6646H14.7117H14.7589H14.8061H14.8532H14.9004H14.9476H14.9947H15.0419H15.0891H15.1362H15.1834H15.2306H15.2777H15.3249H15.3721H15.4192H15.4664H15.5136H15.5607H15.6079H15.6551H15.7022H15.7494H15.7966H15.8438H15.8909H15.9381H15.9853H16.0324H16.0796H16.1268H16.1739H16.2211H16.2683H16.3154H16.3626H16.4098H16.4569H16.5041H16.5513H16.5984H16.6456H16.6928H16.7399H16.7871H16.8343H16.8814H16.9286H16.9758H17.0229H17.0701H17.1173H17.1645H17.2116H17.2588H17.306H17.3531H17.4003H17.4475H17.4946H17.5418H17.589H17.6361H17.6833H17.7305H17.7776H17.8248H17.872H17.9191H17.9663H18.0135H18.0606H18.1078H18.155H18.2021H18.2493H18.2965H18.3437H18.3908H18.438H18.4852H18.5323H18.5795H18.6267H18.6738H18.721H18.7682H18.8153H18.8625H18.9097H18.9568H19.004H19.0512H19.0983H19.1455H19.1927H19.2398H19.287H19.3342H19.3813H19.4285H19.4757H19.5229H19.57H19.6172H19.6644H19.7115H19.7587H19.8059H19.853H19.9002H19.9474H19.9945H20.0417H20.0889H20.136H20.1832H20.2304H20.2775H20.3247H20.3719H20.419H20.4662H20.5134H20.5605H20.6077H20.6549H20.7021H20.7492H20.7964H20.8436H20.8907H20.9379H20.9851H21.0322H21.0794H21.1266H21.1737H21.2209H21.2681H21.3152H21.3624H21.4096H21.4567H21.5039H21.5511H21.5982H21.6454H21.6926H21.7397H21.7869H21.8341H21.8813H21.9284H21.9756H22.0228H22.0699H22.1171H22.1643H22.2114H22.2586H22.3058H22.3529H22.4001H22.4473H22.4944H22.5416H22.5888H22.6359H22.6831H22.7303H22.7774H22.8246H22.8718H22.9189H22.9661H23.0133H23.0604H23.1076H23.1548H23.202H23.2491H23.2963H23.3435H23.3906H23.4378H23.485H23.5321H23.5793H23.6265H23.6736H23.7208H23.768H23.8151H23.8623H23.9095H23.9566H24.0038H24.051H24.0981H24.1453H24.1925H24.2396H24.2868H24.334H24.3812H24.4283H24.4755H24.5227H24.5698H24.617H24.6642H24.7113H24.75V6.90862V6.94041V6.97219V7.00398V7.03577V7.06755V7.09934V7.13113V7.16291V7.1947V7.22649V7.25828V7.29006V7.32185V7.35364V7.38542V7.41721V7.449V7.48079V7.51257V7.54436V7.57615V7.60793V7.63972V7.67151V7.7033V7.73508V7.76687V7.79866V7.83044V7.86223V7.89402V7.92581V7.95759V7.98938V8.02117V8.05295V8.08474V8.11653V8.14832V8.1801V8.21189V8.24368V8.27546V8.30725V8.33904V8.37082V8.40261V8.4344V8.46619V8.49797V8.52976V8.56155V8.59333V8.62512V8.65691V8.6887V8.72048V8.75227V8.78406V8.81584V8.84763V8.87942V8.91121V8.94299V8.97478V9.00657V9.03835V9.07014V9.10193V9.13372V9.1655V9.19729V9.22908V9.26086V9.29265V9.32444V9.35623V9.38801V9.4198V9.45159V9.48337V9.51516V9.54695V9.57874V9.61052V9.64231V9.6741V9.70588V9.73767V9.76946V9.80124V9.83303V9.86482V9.89661V9.92839V9.96018V9.99197V10.0238V10.0555V10.0873V10.1191V10.1509V10.1827V10.2145V10.2463V10.2781V10.3098V10.3416V10.3734V10.4052V10.437V10.4688V10.5006V10.5323V10.5641V10.5959V10.6277V10.6595V10.6913V10.7231V10.7549V10.7866V10.8184V10.8502V10.882V10.9138V10.9456V10.9774V11.0092V11.0409V11.0727V11.1045V11.1363V11.1681V11.1999V11.2317V11.2635V11.2952V11.327V11.3588V11.3906V11.4224V11.4542V11.486V11.5177V11.5495V11.5813V11.6131V11.6449V11.6767V11.7085V11.7403V11.772V11.8038V11.8356V11.8674V11.8992V11.931V11.9628V11.9946V12.0263V12.0581V12.0899V12.1217V12.1535V12.1853V12.2171V12.2489V12.2806V12.3124V12.3442V12.376V12.4078V12.4396V12.4714V12.5031V12.5349V12.5667V12.5985V12.6303V12.6621V12.6939V12.7257V12.7574V12.7892V12.821V12.8528V12.8846V12.9164V12.9482V12.98V13.0117V13.0435V13.0753V13.1071V13.1389V13.1707V13.2025V13.2343V13.266V13.2978V13.3296V13.3614V13.3932V13.425V13.4568V13.4885V13.5203V13.5521V13.5839V13.6157V13.6475V13.6793V13.7111V13.7428V13.7746V13.8064V13.8382V13.87V13.9018V13.9336V13.9654V13.9971V14.0289V14.0607V14.0925V14.1243V14.1561V14.1879V14.2197V14.2514V14.2832V14.315V14.3468V14.3786V14.4104V14.4422V14.4739V14.5057V14.5375V14.5693V14.6011V14.6329V14.6647V14.6965V14.7282V14.76V14.7918V14.8236V14.8554V14.8872V14.919V14.9508V14.9825V15.0143V15.0461V15.0779V15.1097V15.1415V15.1733V15.2051V15.2368V15.2686V15.3004V15.3322V15.364V15.3958V15.4276V15.4593V15.4911V15.5229V15.5547V15.5865V15.6183V15.6501V15.6819V15.7136V15.7454V15.7772V15.809V15.8408V15.8726V15.9044V15.9362V15.9679V15.9997V16.0315V16.0633V16.0951V16.1269V16.1587V16.1905V16.2222V16.254V16.2858V16.3176V16.3494V16.3812V16.413V16.4448V16.4765V16.5083V16.5401V16.5719V16.6037V16.6355V16.6673V16.699V16.7308V16.7626V16.7944V16.8262V16.858V16.8898V16.9216V16.9533V16.9851V17.0169V17.0487V17.0805V17.1123V17.1441V17.1759V17.2076V17.2394V17.2712V17.303V17.3348V17.3666V17.3984V17.4302V17.4619V17.4937V17.5255V17.5573V17.5891V17.6209V17.6527V17.6844V17.7162V17.748V17.7798V17.8116V17.8434V17.8752V17.907V17.9387V17.9705V18.0023V18.0341V18.0659V18.0977V18.1295V18.1613V18.193V18.2248V18.2566V18.2884V18.3202V18.352V18.3838V18.4156V18.4473V18.4791V18.5109V18.5427V18.5745V18.6063V18.6381V18.6698V18.7016V18.7334V18.7652V18.797V18.8288V18.8606V18.8924V18.9241V18.9559V18.9877V19.0195V19.0513V19.0831V19.1149V19.1467V19.1784V19.2102V19.242V19.2738V19.3056V19.3374V19.3692V19.401V19.4327V19.4645V19.4963V19.5281V19.5599V19.5917V19.6235V19.6552V19.687V19.7188V19.7506V19.7824V19.8142V19.846V19.8778V19.9095V19.9413V19.9731V20.0049V20.0367V20.0685V20.1003V20.1321V20.1638V20.1956V20.2274V20.2592V20.291V20.3228V20.3546V20.3864V20.4181V20.4499V20.4817V20.5135V20.5453V20.5771V20.6089V20.6406V20.6724V20.7042V20.736V20.7678V20.7996V20.8314V20.8632V20.8949V20.9267V20.9585V20.9903V21.0221V21.0539V21.0857V21.1175V21.1492V21.181V21.2128V21.2446V21.2764V21.3082V21.34V21.3718V21.4035V21.4353V21.4671V21.4989V21.5307V21.5625V21.5943V21.626V21.6578V21.6896V21.7214V21.7532V21.785V21.8168V21.8486V21.8803V21.9121V21.9439L1.25 6.90002Z" fill="url(#paint2_linear_307_5037)" stroke="url(#paint3_linear_307_5037)"/>
<defs>
<linearGradient id="paint0_linear_307_5037" x1="21.3894" y1="3.16447" x2="17.1978" y2="-4.30791" gradientUnits="userSpaceOnUse">
<stop stop-color="#00e8ff"/>
<stop offset="1" stop-color="#41bac5"/>
</linearGradient>
<linearGradient id="paint1_linear_307_5037" x1="21.3894" y1="3.16447" x2="17.1978" y2="-4.30791" gradientUnits="userSpaceOnUse">
<stop stop-color="#00e8ff"/>
<stop offset="1" stop-color="#41bac5"/>
</linearGradient>
<linearGradient id="paint2_linear_307_5037" x1="24.4524" y1="17.1488" x2="7.17246" y2="4.81543" gradientUnits="userSpaceOnUse">
<stop stop-color="#00e8ff"/>
<stop offset="1" stop-color="#41bac5"/>
</linearGradient>
<linearGradient id="paint3_linear_307_5037" x1="24.4524" y1="17.1488" x2="7.17246" y2="4.81543" gradientUnits="userSpaceOnUse">
<stop stop-color="#00e8ff"/>
<stop offset="1" stop-color="#41bac5"/>
</linearGradient>
</defs>
</svg>
