<svg width="30" height="30" viewBox="0 0 30 30" fill="none" xmlns="http://www.w3.org/2000/svg">
<path d="M27.8558 8.72216C27.7816 8.5511 27.6424 8.41655 27.4689 8.3481C27.2955 8.27965 27.1019 8.2829 26.9308 8.35716C26.7598 8.43142 26.6252 8.57059 26.5568 8.74406C26.4883 8.91753 26.4916 9.1111 26.5658 9.28216C27.4353 11.2788 27.7953 13.4602 27.6134 15.6304C27.4316 17.8005 26.7136 19.8916 25.5239 21.7157C24.3343 23.5398 22.7102 25.0399 20.7976 26.0813C18.8849 27.1227 16.7436 27.6728 14.5658 27.6822C11.7096 27.6918 8.92978 26.7605 6.65582 25.0322H7.48584C7.67149 25.0322 7.84953 24.9584 7.9808 24.8271C8.11208 24.6959 8.18582 24.5178 8.18582 24.3322C8.18582 24.1465 8.11208 23.9685 7.9808 23.8372C7.84953 23.7059 7.67149 23.6322 7.48584 23.6322H4.78583C4.60018 23.6322 4.42214 23.7059 4.29086 23.8372C4.15959 23.9685 4.08582 24.1465 4.08582 24.3322V27.0322C4.08582 27.2178 4.15959 27.3959 4.29086 27.5271C4.42214 27.6584 4.60018 27.7322 4.78583 27.7322C4.97148 27.7322 5.14952 27.6584 5.28079 27.5271C5.41207 27.3959 5.48584 27.2178 5.48584 27.0322V25.8922C6.55269 26.7517 7.7383 27.4523 9.00583 27.9722C10.7622 28.6997 12.6448 29.0735 14.5458 29.0722C16.9588 29.0707 19.3335 28.4688 21.4558 27.3206C23.5781 26.1724 25.3812 24.5141 26.7027 22.4951C28.0242 20.4762 28.8225 18.1601 29.0255 15.7557C29.2286 13.3513 28.83 10.9341 27.8658 8.72216H27.8558Z" fill="url(#paint0_linear_307_5029)"/>
<path d="M5.23593 5.25218C7.47866 3.01595 10.4526 1.66352 13.612 1.4431C16.7715 1.22267 19.9044 2.14904 22.4359 4.05218H21.6059C21.4203 4.05218 21.2422 4.12593 21.111 4.2572C20.9797 4.38848 20.9059 4.56653 20.9059 4.75218C20.9059 4.93783 20.9797 5.11589 21.111 5.24716C21.2422 5.37844 21.4203 5.45218 21.6059 5.45218H24.3059C24.4916 5.45218 24.6696 5.37844 24.8009 5.24716C24.9322 5.11589 25.0059 4.93783 25.0059 4.75218V2.05218C25.0059 1.86653 24.9322 1.68848 24.8009 1.5572C24.6696 1.42593 24.4916 1.35219 24.3059 1.35219C24.1203 1.35219 23.9422 1.42593 23.8109 1.5572C23.6797 1.68848 23.6059 1.86653 23.6059 2.05218V3.18217C21.6658 1.62995 19.3599 0.601557 16.9087 0.195358C14.4575 -0.210842 11.943 0.0187536 9.60593 0.862182C7.80908 1.5104 6.15757 2.50632 4.74576 3.79304C3.33395 5.07977 2.18953 6.63207 1.37787 8.36125C0.566212 10.0904 0.103222 11.9626 0.0153814 13.8708C-0.0724592 15.7789 0.216578 17.6857 0.865937 19.4822C0.913634 19.6193 1.00276 19.7382 1.121 19.8224C1.23925 19.9066 1.38074 19.9519 1.52591 19.9522C1.6053 19.9662 1.68654 19.9662 1.76593 19.9522C1.93897 19.8889 2.0801 19.7601 2.15872 19.5934C2.23735 19.4268 2.24711 19.2359 2.18591 19.0622C1.35196 16.712 1.19766 14.1743 1.74069 11.7404C2.28372 9.30646 3.50208 7.075 5.25592 5.30218L5.23593 5.25218Z" fill="url(#paint1_linear_307_5029)"/>
<path d="M20.9759 17.6521H12.3259C12.0583 17.6519 11.7987 17.5607 11.5898 17.3936C11.3808 17.2264 11.2349 16.9932 11.1759 16.7321L11.0759 16.2621H18.9759C19.4347 16.2606 19.8779 16.0957 20.226 15.797C20.5742 15.4983 20.8046 15.0853 20.8759 14.6321L21.5659 10.1521C21.5709 10.1156 21.5709 10.0786 21.5659 10.0421C21.5663 9.95043 21.5479 9.85963 21.5117 9.77534C21.4756 9.69106 21.4226 9.6151 21.3559 9.55214C21.2937 9.48449 21.2179 9.43079 21.1335 9.39459C21.049 9.35839 20.9578 9.34051 20.8659 9.34213H9.56592L9.22592 7.73213C9.18822 7.5769 9.09995 7.43862 8.97504 7.33905C8.85012 7.23948 8.69565 7.18427 8.53592 7.18213H6.39594C6.21028 7.18213 6.03222 7.25589 5.90094 7.38716C5.76966 7.51844 5.69592 7.69649 5.69592 7.88214C5.69592 8.06779 5.76966 8.24583 5.90094 8.37711C6.03222 8.50838 6.21028 8.58214 6.39594 8.58214H7.97592L8.31592 10.1621C8.31124 10.1819 8.31124 10.2024 8.31592 10.2221L9.49591 15.6621C9.49591 15.6621 9.49591 15.7221 9.49591 15.7521L9.76593 17.0221C9.85845 17.4629 10.0665 17.8711 10.3687 18.205C10.671 18.5388 11.0565 18.7864 11.4859 18.9221C11.2975 19.2217 11.1971 19.5682 11.1959 19.9221C11.1959 20.4526 11.4066 20.9613 11.7817 21.3363C12.1568 21.7114 12.6655 21.9221 13.1959 21.9221C13.7264 21.9221 14.2351 21.7114 14.6101 21.3363C14.9852 20.9613 15.1959 20.4526 15.1959 19.9221C15.1955 19.6121 15.12 19.3067 14.9759 19.0321H17.1659C17.0281 19.3086 16.9563 19.6132 16.9559 19.9221C16.9493 20.1824 16.9947 20.4413 17.0898 20.6837C17.1848 20.9261 17.3274 21.147 17.5091 21.3334C17.6908 21.5198 17.908 21.668 18.1479 21.7691C18.3879 21.8702 18.6456 21.9222 18.9059 21.9221C19.4363 21.9221 19.9451 21.7114 20.3201 21.3363C20.6952 20.9613 20.9059 20.4526 20.9059 19.9221C20.9055 19.6152 20.83 19.3131 20.6859 19.0421H21.3559V18.9721C21.4974 18.9037 21.6118 18.7896 21.6806 18.6482C21.7493 18.5069 21.7685 18.3465 21.735 18.1929C21.7016 18.0393 21.6174 17.9014 21.496 17.8015C21.3746 17.7016 21.2231 17.6455 21.0659 17.6421L20.9759 17.6521ZM9.90591 10.7821H20.0859L19.5159 14.4521C19.4948 14.5749 19.4311 14.6863 19.336 14.7667C19.2409 14.8472 19.1205 14.8916 18.9959 14.8921H10.7859L9.90591 10.7821Z" fill="url(#paint2_linear_307_5029)"/>
<defs>
<linearGradient id="paint0_linear_307_5029" x1="28.2635" y1="22.0185" x2="8.18911" y2="10.5681" gradientUnits="userSpaceOnUse">
<stop stop-color="#00e8ff"/>
<stop offset="1" stop-color="#41bac5"/>
</linearGradient>
<linearGradient id="paint1_linear_307_5029" x1="24.1919" y1="13.1843" x2="4.51207" y2="1.49634" gradientUnits="userSpaceOnUse">
<stop stop-color="#00e8ff"/>
<stop offset="1" stop-color="#41bac5"/>
</linearGradient>
<linearGradient id="paint2_linear_307_5029" x1="21.2285" y1="16.9171" x2="7.73482" y2="9.94859" gradientUnits="userSpaceOnUse">
<stop stop-color="#00e8ff"/>
<stop offset="1" stop-color="#41bac5"/>
</linearGradient>
</defs>
</svg>
