<svg width="32" height="32" viewBox="0 0 32 32" fill="none" xmlns="http://www.w3.org/2000/svg">
<g clip-path="url(#clip0_307_5043)">
<path d="M4.27002 2.21C4.83577 1.78449 5.42682 1.39378 6.03998 1.04L5.52997 0.119995C4.86989 0.494511 4.23522 0.912081 3.63 1.37C2.30107 2.37444 1.14287 3.58668 0.200012 4.96L1.08002 5.55C1.95339 4.26958 3.03106 3.14124 4.27002 2.21Z" fill="url(#paint0_linear_307_5043)"/>
<path d="M31.5 17.2C31.0725 14.6517 29.9437 12.2728 28.24 10.33C25.94 7.59002 22.96 5.83002 20.24 5.57002C20.0824 5.21302 19.8808 4.87709 19.64 4.57002L17.72 2.06002C16.58 0.560022 14.63 -0.139978 12.22 0.0600221C9.67171 0.416315 7.25794 1.42212 5.21069 2.98076C3.16344 4.5394 1.55155 6.59846 0.529965 8.96002C-0.310035 11.23 -0.150022 13.31 0.979978 14.79L2.08001 16.24C1.86259 16.5517 1.68138 16.8872 1.53998 17.24L0.349973 20.16C-0.370027 21.9 0.0199801 23.94 1.41998 25.91C2.98475 27.9689 5.08923 29.5542 7.5 30.49C9.27544 31.2308 11.1763 31.6246 13.1 31.65C13.747 31.6485 14.3927 31.5916 15.03 31.48C17.41 31.06 19.12 29.87 19.83 28.14L20.95 25.39L21.55 25.6C22.3446 25.86 23.174 25.9982 24.01 26.01C25.2283 26.0401 26.417 25.632 27.36 24.86L29.78 22.86C31.21 21.58 31.81 19.6 31.5 17.2ZM16.5 20.88L18.11 19.52C18.8194 20.3166 19.6066 21.0402 20.46 21.68L18.87 23.01C18.0031 22.383 17.2083 21.6619 16.5 20.86V20.88ZM15.82 20.08C15.6 19.79 15.39 19.51 15.2 19.22C15.1769 19.1778 15.1501 19.1376 15.12 19.1C14.7427 18.5116 14.4085 17.8967 14.12 17.26C14.5817 16.9845 15.0259 16.6806 15.45 16.35C15.57 16.26 15.68 16.18 15.79 16.08C16.2572 17.0157 16.8202 17.9005 17.47 18.72L15.82 20.08ZM14.35 20.67C14.2436 20.9297 14.0386 21.1365 13.7799 21.2453C13.5212 21.354 13.2299 21.3557 12.97 21.25L10.54 20.25L11.19 18.65C11.8809 18.4193 12.5502 18.1282 13.19 17.78C13.5166 18.4757 13.8978 19.1445 14.33 19.78C14.3971 19.917 14.432 20.0675 14.432 20.22C14.432 20.3725 14.3971 20.5231 14.33 20.66L14.35 20.67ZM13.15 22.78C13.2271 22.969 13.2474 23.1763 13.2085 23.3766C13.1696 23.5769 13.0732 23.7616 12.931 23.908C12.7889 24.0544 12.6072 24.1562 12.4081 24.201C12.209 24.2457 12.0011 24.2315 11.81 24.16L9.38 23.16L10.17 21.16L12.61 22.16C12.8646 22.267 13.0686 22.4673 13.18 22.72L13.15 22.78ZM5.65997 16.78H5.80999L6.90002 18.22C6.28846 18.194 5.68897 18.041 5.13977 17.7707C4.59056 17.5004 4.10367 17.1188 3.71002 16.65L3.61999 16.53C4.2851 16.7086 4.97134 16.7961 5.65997 16.79V16.78ZM8.29998 18.21H8.23999L7.07 16.67C7.82583 16.5578 8.56917 16.3736 9.28998 16.12L10.54 17.75C9.81222 17.9862 9.06129 18.1437 8.29998 18.22V18.21ZM13.08 14.14L14.35 15.86C13.4855 16.4838 12.5529 17.0072 11.57 17.42L10.31 15.77C11.2853 15.3401 12.2135 14.8106 13.08 14.19V14.14ZM15.19 15.14L13.91 13.47C14.7411 12.8025 15.4987 12.0482 16.17 11.22L17.43 12.88C16.7656 13.7106 16.0147 14.4682 15.19 15.14ZM18.07 11.97L16.81 10.39C17.2489 9.76228 17.6241 9.09229 17.93 8.39002L19.1 9.93002V9.99002C18.8407 10.6912 18.5054 11.3619 18.1 11.99L18.07 11.97ZM19.48 8.60002L18.39 7.17002C18.605 6.46316 18.7161 5.72883 18.72 4.99002L18.81 5.11002C19.1582 5.61318 19.3976 6.18344 19.513 6.78437C19.6284 7.3853 19.6171 8.00368 19.48 8.60002ZM1.47998 9.26002C2.42855 7.08082 3.91894 5.18055 5.80932 3.74001C7.69971 2.29947 9.92721 1.36655 12.28 1.03002H13.01C13.7306 0.97789 14.4534 1.09549 15.1203 1.37337C15.7872 1.65124 16.3796 2.08165 16.85 2.63002C17.76 3.82002 17.85 5.54002 17.16 7.46002C16.2105 9.64053 14.7186 11.5416 12.8264 12.9823C10.9341 14.4229 8.70452 15.3551 6.34997 15.69C5.52396 15.833 4.67528 15.7659 3.88196 15.4951C3.08863 15.2242 2.37614 14.7583 1.80999 14.14C0.889995 12.94 0.810007 11.23 1.51001 9.31002L1.47998 9.26002ZM2.84997 17.26C3.41974 17.9356 4.13982 18.4684 4.95251 18.8157C5.7652 19.163 6.6479 19.3152 7.52997 19.26C7.79997 19.26 8.07997 19.26 8.34997 19.26C8.85528 19.2125 9.35655 19.1289 9.84997 19.01L8.32 22.76L7.32 22.36L6.90997 23.36L7.90997 23.76L7.51001 24.76L8.51001 25.16L8.92999 24.16L9.92999 24.57L9.52997 25.57L10.53 25.97L10.93 24.97L11.42 25.16C11.6752 25.266 11.949 25.3202 12.2253 25.3197C12.5017 25.3191 12.7751 25.2638 13.03 25.1568C13.2848 25.0499 13.5159 24.8934 13.7098 24.6966C13.9038 24.4997 14.0568 24.2664 14.16 24.01C14.3695 23.4938 14.3695 22.9162 14.16 22.4L14.1 22.28C14.3734 22.1816 14.6242 22.029 14.8372 21.8314C15.0503 21.6338 15.2213 21.3953 15.34 21.13C16.6188 22.6793 18.1969 23.9547 19.98 24.88C19.5792 25.5935 19.0114 26.1992 18.3251 26.6451C17.6389 27.0909 16.8548 27.3637 16.04 27.44C13.6793 27.7268 11.2846 27.404 9.08416 26.5024C6.88369 25.6009 4.95082 24.1506 3.46997 22.29C2.91025 21.6523 2.52427 20.8812 2.34912 20.051C2.17397 19.2208 2.21555 18.3595 2.46997 17.55C2.5399 17.3852 2.6201 17.2249 2.71002 17.07L2.84997 17.26ZM8.16998 27.26L7.36999 29.26C6.39636 28.8272 5.474 28.2872 4.61999 27.65L5.40002 25.73C6.2665 26.3506 7.19472 26.8801 8.16998 27.31V27.26ZM9.16998 27.66C10.168 28.0291 11.1995 28.3003 12.25 28.47L11.47 30.39C10.4137 30.2427 9.37735 29.9777 8.38 29.6L9.16998 27.66ZM1.30999 20.47L1.36999 20.33C1.56302 21.0365 1.85957 21.7104 2.25 22.33L1.57 23.99C1.28866 23.4592 1.12111 22.8756 1.07806 22.2764C1.03501 21.6772 1.11742 21.0756 1.32 20.51L1.30999 20.47ZM2.30999 25.21L3.03998 23.42C3.52155 24.0149 4.05721 24.5639 4.64001 25.06L3.80999 26.94C3.23592 26.4382 2.72241 25.871 2.27997 25.25L2.30999 25.21ZM12.61 30.49L13.38 28.59C13.7 28.59 14.02 28.59 14.38 28.59C14.8276 28.5919 15.275 28.5685 15.72 28.52L14.99 30.31H14.81C14.077 30.4651 13.3292 30.5389 12.58 30.53L12.61 30.49ZM16.22 29.99L16.9 28.33C17.6033 28.1562 18.2771 27.8799 18.9 27.51L18.84 27.64C18.5935 28.2038 18.2296 28.7086 17.7726 29.1207C17.3157 29.5328 16.7762 29.8428 16.19 30.03L16.22 29.99ZM19.81 23.61L21.37 22.3C22.0207 22.6964 22.707 23.0312 23.42 23.3L21.94 24.55H21.88C21.1578 24.313 20.4637 23.9978 19.81 23.61ZM26.69 24.01C26.2055 24.3867 25.6465 24.6564 25.0501 24.8012C24.4537 24.946 23.8333 24.9626 23.23 24.85L24.61 23.69C25.2082 23.8415 25.8229 23.9187 26.44 23.92H26.81L26.69 24.01ZM29.11 22.01C28.4198 22.4965 27.6175 22.8003 26.7782 22.8929C25.9389 22.9856 25.0897 22.8642 24.31 22.54C22.061 21.7431 20.0774 20.3376 18.58 18.48C17.7878 17.5442 17.1159 16.5129 16.58 15.41C18.1201 14.0343 19.3242 12.3238 20.1 10.41C20.5688 9.23673 20.7272 7.96239 20.56 6.71002C23.2886 7.32448 25.722 8.86078 27.45 11.06C29.0191 12.85 30.0581 15.0421 30.45 17.39C30.6342 18.2153 30.606 19.0739 30.3682 19.8853C30.1303 20.6968 29.6906 21.4347 29.09 22.03L29.11 22.01Z" fill="url(#paint1_linear_307_5043)"/>
<path d="M29.02 9.17998C29.19 9.37998 29.35 9.57998 29.51 9.78998L30.35 9.14998C30.19 8.92998 30.01 8.70998 29.83 8.49998C28.275 6.59784 26.257 5.12744 23.97 4.22998L23.62 5.22998C25.7298 6.06027 27.5897 7.42077 29.02 9.17998Z" fill="url(#paint2_linear_307_5043)"/>
<path d="M22.74 3.86002C22.3703 3.78552 21.9962 3.73541 21.62 3.71002L21.55 4.76003C21.8865 4.78041 22.2208 4.82722 22.55 4.90002L22.74 3.86002Z" fill="url(#paint3_linear_307_5043)"/>
<path d="M22.7 27.37H22.63V28.43H22.7C23.04 28.43 23.38 28.43 23.7 28.43L23.62 27.43C23.33 27.35 23.01 27.37 22.7 27.37Z" fill="url(#paint4_linear_307_5043)"/>
<path d="M24.66 27.21L24.81 28.21C26.5502 27.9716 28.2259 27.3904 29.74 26.5L29.2 25.6C27.8086 26.4328 26.2652 26.9801 24.66 27.21Z" fill="url(#paint5_linear_307_5043)"/>
<path d="M11.13 8.98999C11.4738 9.01217 11.8162 8.92936 12.1119 8.75253C12.4076 8.5757 12.6426 8.31319 12.7858 7.99981C12.9289 7.68642 12.9734 7.33694 12.9135 6.99766C12.8535 6.65839 12.6919 6.34534 12.45 6.09999L12.15 5.8L12.69 5.27L12.29 4.87L11.76 5.4L11.4 5.04L11.16 4.8L11.69 4.26L11.3 3.86L10.76 4.4L10.18 3.81L9.77997 4.21L10.36 4.8L6.73999 8.37999L6.16998 7.8L5.76001 8.19999L6.34003 8.77999L5.81 9.30999L6.20001 9.71L6.73999 9.18L7.34003 9.77999L6.79999 10.31L7.20001 10.72L7.73999 10.18L8.34998 10.8C8.62286 11.0814 8.98509 11.2592 9.37463 11.3029C9.76417 11.3467 10.1568 11.2536 10.4853 11.0397C10.8138 10.8259 11.0577 10.5044 11.1754 10.1305C11.293 9.75659 11.2769 9.3534 11.13 8.98999ZM10.99 5.44L12.05 6.5C12.2608 6.7135 12.3782 7.00201 12.3763 7.30207C12.3745 7.60212 12.2535 7.88915 12.04 8.09999C11.8265 8.31084 11.538 8.42824 11.2379 8.42636C10.9379 8.42449 10.6508 8.3035 10.44 8.09L9.15002 6.79L10.75 5.19999L10.99 5.44ZM8.75 10.44L7.14001 8.82L8.75 7.23L10.35 8.84999C10.4549 8.95411 10.5382 9.07796 10.595 9.21441C10.6519 9.35085 10.6811 9.49719 10.6811 9.645C10.6811 9.79281 10.6519 9.93914 10.595 10.0756C10.5382 10.212 10.4549 10.3359 10.35 10.44C10.2424 10.5426 10.1156 10.623 9.97693 10.6766C9.83822 10.7301 9.69032 10.7558 9.54169 10.7521C9.39305 10.7484 9.24663 10.7154 9.11078 10.6549C8.97492 10.5945 8.85231 10.5079 8.75 10.4V10.44Z" fill="url(#paint6_linear_307_5043)"/>
<path d="M24.6 13.7C24.6684 13.4352 24.6788 13.1587 24.6304 12.8894C24.5821 12.6202 24.4762 12.3646 24.32 12.14C24.0305 11.7188 23.5858 11.4296 23.0834 11.3359C22.581 11.2422 22.0619 11.3515 21.64 11.64L21.24 11.91L20.75 11.21L20.22 11.57L20.71 12.28L20.23 12.61L19.92 12.83L19.43 12.12L18.9 12.48L19.39 13.19L18.62 13.72L18.99 14.25L19.75 13.72L23.03 18.48L22.27 19.01L22.63 19.54L23.4 19.01L23.89 19.72L24.41 19.36L23.93 18.65L24.72 18.1L25.21 18.81L25.74 18.44L25.25 17.73L26.06 17.18C26.4221 16.9275 26.6867 16.5585 26.8097 16.1346C26.9327 15.7106 26.9066 15.2573 26.7358 14.8502C26.5651 14.4431 26.2599 14.1069 25.8712 13.8976C25.4825 13.6883 25.0338 13.6186 24.6 13.7ZM20.6 13.14L22 12.14C22.2813 11.9732 22.6154 11.9193 22.9348 11.9895C23.2542 12.0596 23.5352 12.2485 23.7206 12.5178C23.9061 12.7871 23.9824 13.1169 23.934 13.4403C23.8856 13.7638 23.7162 14.0568 23.46 14.26L21.74 15.44L20.28 13.33L20.6 13.14ZM25.69 16.65L23.56 18.12L22.1 16L24.24 14.53C24.5211 14.3377 24.8672 14.265 25.2019 14.3278C25.5367 14.3907 25.8327 14.5839 26.025 14.865C26.2173 15.1462 26.29 15.4922 26.2272 15.8269C26.1643 16.1617 25.9711 16.4577 25.69 16.65Z" fill="url(#paint7_linear_307_5043)"/>
</g>
<defs>
<linearGradient id="paint0_linear_307_5043" x1="5.84986" y1="3.70622" x2="0.915629" y2="1.19015" gradientUnits="userSpaceOnUse">
<stop stop-color="#00e8ff"/>
<stop offset="1" stop-color="#41bac5"/>
</linearGradient>
<linearGradient id="paint1_linear_307_5043" x1="30.5514" y1="20.9121" x2="3.08614" y2="7.90665" gradientUnits="userSpaceOnUse">
<stop stop-color="#00e8ff"/>
<stop offset="1" stop-color="#41bac5"/>
</linearGradient>
<linearGradient id="paint2_linear_307_5043" x1="30.1309" y1="7.90206" x2="24.7412" y2="4.80898" gradientUnits="userSpaceOnUse">
<stop stop-color="#00e8ff"/>
<stop offset="1" stop-color="#41bac5"/>
</linearGradient>
<linearGradient id="paint3_linear_307_5043" x1="22.7013" y1="4.49595" x2="21.6669" y2="4.00554" gradientUnits="userSpaceOnUse">
<stop stop-color="#00e8ff"/>
<stop offset="1" stop-color="#41bac5"/>
</linearGradient>
<linearGradient id="paint4_linear_307_5043" x1="23.6652" y1="28.0693" x2="22.7376" y2="27.6263" gradientUnits="userSpaceOnUse">
<stop stop-color="#00e8ff"/>
<stop offset="1" stop-color="#41bac5"/>
</linearGradient>
<linearGradient id="paint5_linear_307_5043" x1="29.5746" y1="27.3237" x2="26.6538" y2="24.6283" gradientUnits="userSpaceOnUse">
<stop stop-color="#00e8ff"/>
<stop offset="1" stop-color="#41bac5"/>
</linearGradient>
<linearGradient id="paint6_linear_307_5043" x1="12.7057" y1="8.76563" x2="6.36698" y2="5.8901" gradientUnits="userSpaceOnUse">
<stop stop-color="#00e8ff"/>
<stop offset="1" stop-color="#41bac5"/>
</linearGradient>
<linearGradient id="paint7_linear_307_5043" x1="26.617" y1="16.8304" x2="19.3568" y2="13.4868" gradientUnits="userSpaceOnUse">
<stop stop-color="#00e8ff"/>
<stop offset="1" stop-color="#41bac5"/>
</linearGradient>
<clipPath id="clip0_307_5043">
<rect width="31.59" height="31.59" fill="white"/>
</clipPath>
</defs>
</svg>
